{
    "asset" : {
        "generator" : "Khronos glTF Blender I/O v3.4.50",
        "version" : "2.0"
    },
    "scene" : 0,
    "scenes" : [
        {
            "name" : "Scene",
            "nodes" : [
                0
            ]
        }
    ],
    "nodes" : [
        {
            "mesh" : 0,
            "name" : "chocolate_splash_free_001_grp",
            "scale" : [
                100,
                100,
                100
            ]
        }
    ],
    "materials" : [
        {
            "doubleSided" : true,
            "name" : "chocolate_splash_free_001_mat.001",
            "normalTexture" : {
                "index" : 0
            },
            "occlusionTexture" : {
                "index" : 1
            },
            "pbrMetallicRoughness" : {
                "baseColorTexture" : {
                    "index" : 2
                },
                "metallicRoughnessTexture" : {
                    "index" : 1
                }
            }
        }
    ],
    "meshes" : [
        {
            "name" : "Low",
            "primitives" : [
                {
                    "attributes" : {
                        "COLOR_0" : 0,
                        "POSITION" : 1,
                        "TEXCOORD_0" : 2,
                        "NORMAL" : 3
                    },
                    "indices" : 4,
                    "material" : 0
                }
            ]
        }
    ],
    "textures" : [
        {
            "sampler" : 0,
            "source" : 0
        },
        {
            "sampler" : 0,
            "source" : 1
        },
        {
            "sampler" : 0,
            "source" : 2
        }
    ],
    "images" : [
        {
            "mimeType" : "image/png",
            "name" : "Chocolate_Splash_Free_001_norm",
            "uri" : "Chocolate_Splash_Free_001_norm.png"
        },
        {
            "mimeType" : "image/png",
            "name" : "Chocolate_Splash_Free_001_ao-Chocolate_Splash_Free_001_rough-Chocolate_Splash_Free_001_metal",
            "uri" : "Chocolate_Splash_Free_001_ao-Chocolate_Splash_Free_001_rough-Chocolate_Splash_Free_001_metal.png"
        },
        {
            "mimeType" : "image/png",
            "name" : "Chocolate_Splash_Free_001_bcolor",
            "uri" : "Chocolate_Splash_Free_001_bcolor.png"
        }
    ],
    "accessors" : [
        {
            "bufferView" : 0,
            "componentType" : 5123,
            "count" : 4489,
            "normalized" : true,
            "type" : "VEC4"
        },
        {
            "bufferView" : 1,
            "componentType" : 5126,
            "count" : 4489,
            "max" : [
                0.2592856287956238,
                0.2611348628997803,
                0.09987065196037292
            ],
            "min" : [
                -0.2592856287956238,
                0,
                -0.09987065196037292
            ],
            "type" : "VEC3"
        },
        {
            "bufferView" : 2,
            "componentType" : 5126,
            "count" : 4489,
            "type" : "VEC2"
        },
        {
            "bufferView" : 3,
            "componentType" : 5126,
            "count" : 4489,
            "type" : "VEC3"
        },
        {
            "bufferView" : 4,
            "componentType" : 5123,
            "count" : 25038,
            "type" : "SCALAR"
        }
    ],
    "bufferViews" : [
        {
            "buffer" : 0,
            "byteLength" : 35912,
            "byteOffset" : 0,
            "target" : 34962
        },
        {
            "buffer" : 0,
            "byteLength" : 53868,
            "byteOffset" : 35912,
            "target" : 34962
        },
        {
            "buffer" : 0,
            "byteLength" : 35912,
            "byteOffset" : 89780,
            "target" : 34962
        },
        {
            "buffer" : 0,
            "byteLength" : 53868,
            "byteOffset" : 125692,
            "target" : 34962
        },
        {
            "buffer" : 0,
            "byteLength" : 50076,
            "byteOffset" : 179560,
            "target" : 34963
        }
    ],
    "samplers" : [
        {
            "magFilter" : 9729,
            "minFilter" : 9987
        }
    ],
    "buffers" : [
        {
            "byteLength" : 229636,
            "uri" : "Chocolate_Splash_Free_001.bin"
        }
    ]
}
