{
    "asset" : {
        "generator" : "Khronos glTF Blender I/O v3.4.50",
        "version" : "2.0"
    },
    "scene" : 0,
    "scenes" : [
        {
            "name" : "Scene",
            "nodes" : [
                0
            ]
        }
    ],
    "nodes" : [
        {
            "mesh" : 0,
            "name" : "chocolate_splash_free_004_grp",
            "scale" : [
                100,
                100,
                100
            ]
        }
    ],
    "materials" : [
        {
            "doubleSided" : true,
            "name" : "chocolate_splash_free_004_mat.001",
            "normalTexture" : {
                "index" : 0
            },
            "occlusionTexture" : {
                "index" : 1
            },
            "pbrMetallicRoughness" : {
                "baseColorTexture" : {
                    "index" : 2
                },
                "metallicRoughnessTexture" : {
                    "index" : 1
                }
            }
        }
    ],
    "meshes" : [
        {
            "name" : "Chocolate_Splash_Free_004_Low",
            "primitives" : [
                {
                    "attributes" : {
                        "COLOR_0" : 0,
                        "POSITION" : 1,
                        "TEXCOORD_0" : 2,
                        "NORMAL" : 3
                    },
                    "indices" : 4,
                    "material" : 0
                }
            ]
        }
    ],
    "textures" : [
        {
            "sampler" : 0,
            "source" : 0
        },
        {
            "sampler" : 0,
            "source" : 1
        },
        {
            "sampler" : 0,
            "source" : 2
        }
    ],
    "images" : [
        {
            "mimeType" : "image/png",
            "name" : "Chocolate_Splash_Free_004_norm",
            "uri" : "Chocolate_Splash_Free_004_norm.png"
        },
        {
            "mimeType" : "image/png",
            "name" : "Chocolate_Splash_Free_004_ao-Chocolate_Splash_Free_004_rough-Chocolate_Splash_Free_004_metal",
            "uri" : "Chocolate_Splash_Free_004_ao-Chocolate_Splash_Free_004_rough-Chocolate_Splash_Free_004_metal.png"
        },
        {
            "mimeType" : "image/png",
            "name" : "Chocolate_Splash_Free_004_bcolor",
            "uri" : "Chocolate_Splash_Free_004_bcolor.png"
        }
    ],
    "accessors" : [
        {
            "bufferView" : 0,
            "componentType" : 5123,
            "count" : 3060,
            "normalized" : true,
            "type" : "VEC4"
        },
        {
            "bufferView" : 1,
            "componentType" : 5126,
            "count" : 3060,
            "max" : [
                0.11016736924648285,
                0.3199675679206848,
                0.1316511034965515
            ],
            "min" : [
                -0.11016736924648285,
                0,
                -0.13165108859539032
            ],
            "type" : "VEC3"
        },
        {
            "bufferView" : 2,
            "componentType" : 5126,
            "count" : 3060,
            "type" : "VEC2"
        },
        {
            "bufferView" : 3,
            "componentType" : 5126,
            "count" : 3060,
            "type" : "VEC3"
        },
        {
            "bufferView" : 4,
            "componentType" : 5123,
            "count" : 16536,
            "type" : "SCALAR"
        }
    ],
    "bufferViews" : [
        {
            "buffer" : 0,
            "byteLength" : 24480,
            "byteOffset" : 0,
            "target" : 34962
        },
        {
            "buffer" : 0,
            "byteLength" : 36720,
            "byteOffset" : 24480,
            "target" : 34962
        },
        {
            "buffer" : 0,
            "byteLength" : 24480,
            "byteOffset" : 61200,
            "target" : 34962
        },
        {
            "buffer" : 0,
            "byteLength" : 36720,
            "byteOffset" : 85680,
            "target" : 34962
        },
        {
            "buffer" : 0,
            "byteLength" : 33072,
            "byteOffset" : 122400,
            "target" : 34963
        }
    ],
    "samplers" : [
        {
            "magFilter" : 9729,
            "minFilter" : 9987
        }
    ],
    "buffers" : [
        {
            "byteLength" : 155472,
            "uri" : "Chocolate_Splash_Free_004.bin"
        }
    ]
}
