{
    "asset" : {
        "generator" : "Khronos glTF Blender I/O v3.4.50",
        "version" : "2.0"
    },
    "scene" : 0,
    "scenes" : [
        {
            "name" : "Scene",
            "nodes" : [
                0
            ]
        }
    ],
    "nodes" : [
        {
            "mesh" : 0,
            "name" : "chocolate_splash_003",
            "scale" : [
                100,
                100,
                100
            ]
        }
    ],
    "materials" : [
        {
            "doubleSided" : true,
            "name" : "chocolate_splash_free_003.001",
            "normalTexture" : {
                "index" : 0
            },
            "occlusionTexture" : {
                "index" : 1
            },
            "pbrMetallicRoughness" : {
                "baseColorTexture" : {
                    "index" : 2
                },
                "metallicRoughnessTexture" : {
                    "index" : 1
                }
            }
        }
    ],
    "meshes" : [
        {
            "name" : "splash_market_002_oPP",
            "primitives" : [
                {
                    "attributes" : {
                        "COLOR_0" : 0,
                        "POSITION" : 1,
                        "TEXCOORD_0" : 2,
                        "NORMAL" : 3
                    },
                    "indices" : 4,
                    "material" : 0
                }
            ]
        }
    ],
    "textures" : [
        {
            "sampler" : 0,
            "source" : 0
        },
        {
            "sampler" : 0,
            "source" : 1
        },
        {
            "sampler" : 0,
            "source" : 2
        }
    ],
    "images" : [
        {
            "mimeType" : "image/png",
            "name" : "Chocolate_Splash_Free_003_norm",
            "uri" : "Chocolate_Splash_Free_003_norm.png"
        },
        {
            "mimeType" : "image/png",
            "name" : "Chocolate_Splash_Free_003_ao-Chocolate_Splash_Free_003_rough-Chocolate_Splash_Free_003_metal",
            "uri" : "Chocolate_Splash_Free_003_ao-Chocolate_Splash_Free_003_rough-Chocolate_Splash_Free_003_metal.png"
        },
        {
            "mimeType" : "image/png",
            "name" : "Chocolate_Splash_Free_003_bcolor",
            "uri" : "Chocolate_Splash_Free_003_bcolor.png"
        }
    ],
    "accessors" : [
        {
            "bufferView" : 0,
            "componentType" : 5123,
            "count" : 13547,
            "normalized" : true,
            "type" : "VEC4"
        },
        {
            "bufferView" : 1,
            "componentType" : 5126,
            "count" : 13547,
            "max" : [
                0.1878013163805008,
                0.48808637261390686,
                0.16792753338813782
            ],
            "min" : [
                -0.1878013163805008,
                0,
                -0.16792753338813782
            ],
            "type" : "VEC3"
        },
        {
            "bufferView" : 2,
            "componentType" : 5126,
            "count" : 13547,
            "type" : "VEC2"
        },
        {
            "bufferView" : 3,
            "componentType" : 5126,
            "count" : 13547,
            "type" : "VEC3"
        },
        {
            "bufferView" : 4,
            "componentType" : 5123,
            "count" : 76866,
            "type" : "SCALAR"
        }
    ],
    "bufferViews" : [
        {
            "buffer" : 0,
            "byteLength" : 108376,
            "byteOffset" : 0,
            "target" : 34962
        },
        {
            "buffer" : 0,
            "byteLength" : 162564,
            "byteOffset" : 108376,
            "target" : 34962
        },
        {
            "buffer" : 0,
            "byteLength" : 108376,
            "byteOffset" : 270940,
            "target" : 34962
        },
        {
            "buffer" : 0,
            "byteLength" : 162564,
            "byteOffset" : 379316,
            "target" : 34962
        },
        {
            "buffer" : 0,
            "byteLength" : 153732,
            "byteOffset" : 541880,
            "target" : 34963
        }
    ],
    "samplers" : [
        {
            "magFilter" : 9729,
            "minFilter" : 9987
        }
    ],
    "buffers" : [
        {
            "byteLength" : 695612,
            "uri" : "Chocolate_Splash_Free_003.bin"
        }
    ]
}
