{
    "asset" : {
        "generator" : "Khronos glTF Blender I/O v3.4.50",
        "version" : "2.0"
    },
    "scene" : 0,
    "scenes" : [
        {
            "name" : "Scene",
            "nodes" : [
                0
            ]
        }
    ],
    "nodes" : [
        {
            "mesh" : 0,
            "name" : "chocolate_splash_free_006_grp",
            "scale" : [
                100,
                100,
                100
            ]
        }
    ],
    "materials" : [
        {
            "doubleSided" : true,
            "name" : "chocolate_splash_free_006_mat.001",
            "normalTexture" : {
                "index" : 0
            },
            "occlusionTexture" : {
                "index" : 1
            },
            "pbrMetallicRoughness" : {
                "baseColorTexture" : {
                    "index" : 2
                },
                "metallicRoughnessTexture" : {
                    "index" : 1
                }
            }
        }
    ],
    "meshes" : [
        {
            "name" : "Low.002",
            "primitives" : [
                {
                    "attributes" : {
                        "COLOR_0" : 0,
                        "POSITION" : 1,
                        "TEXCOORD_0" : 2,
                        "NORMAL" : 3
                    },
                    "indices" : 4,
                    "material" : 0
                }
            ]
        }
    ],
    "textures" : [
        {
            "sampler" : 0,
            "source" : 0
        },
        {
            "sampler" : 0,
            "source" : 1
        },
        {
            "sampler" : 0,
            "source" : 2
        }
    ],
    "images" : [
        {
            "mimeType" : "image/png",
            "name" : "Chocolate_Splash_Free_006_norm",
            "uri" : "Chocolate_Splash_Free_006_norm.png"
        },
        {
            "mimeType" : "image/png",
            "name" : "Chocolate_Splash_Free_006_ao-Chocolate_Splash_Free_006_rough-Chocolate_Splash_Free_006_metal",
            "uri" : "Chocolate_Splash_Free_006_ao-Chocolate_Splash_Free_006_rough-Chocolate_Splash_Free_006_metal.png"
        },
        {
            "mimeType" : "image/png",
            "name" : "Chocolate_Splash_Free_006_bcolor",
            "uri" : "Chocolate_Splash_Free_006_bcolor.png"
        }
    ],
    "accessors" : [
        {
            "bufferView" : 0,
            "componentType" : 5123,
            "count" : 4003,
            "normalized" : true,
            "type" : "VEC4"
        },
        {
            "bufferView" : 1,
            "componentType" : 5126,
            "count" : 4003,
            "max" : [
                0.058478981256484985,
                0.31065133213996887,
                0.16537566483020782
            ],
            "min" : [
                -0.058478981256484985,
                0,
                -0.16537566483020782
            ],
            "type" : "VEC3"
        },
        {
            "bufferView" : 2,
            "componentType" : 5126,
            "count" : 4003,
            "type" : "VEC2"
        },
        {
            "bufferView" : 3,
            "componentType" : 5126,
            "count" : 4003,
            "type" : "VEC3"
        },
        {
            "bufferView" : 4,
            "componentType" : 5123,
            "count" : 22302,
            "type" : "SCALAR"
        }
    ],
    "bufferViews" : [
        {
            "buffer" : 0,
            "byteLength" : 32024,
            "byteOffset" : 0,
            "target" : 34962
        },
        {
            "buffer" : 0,
            "byteLength" : 48036,
            "byteOffset" : 32024,
            "target" : 34962
        },
        {
            "buffer" : 0,
            "byteLength" : 32024,
            "byteOffset" : 80060,
            "target" : 34962
        },
        {
            "buffer" : 0,
            "byteLength" : 48036,
            "byteOffset" : 112084,
            "target" : 34962
        },
        {
            "buffer" : 0,
            "byteLength" : 44604,
            "byteOffset" : 160120,
            "target" : 34963
        }
    ],
    "samplers" : [
        {
            "magFilter" : 9729,
            "minFilter" : 9987
        }
    ],
    "buffers" : [
        {
            "byteLength" : 204724,
            "uri" : "Chocolate_Splash_Free_006.bin"
        }
    ]
}
